HIERARCHY
ROOT Hips
{
	OFFSET -0.179506 -22.333345 2.821913
	CHANNELS 6 Xposition Yposition Zposition Zrotation Yrotation Xrotation 
	JOINT LeftUpLeg
	{
		OFFSET 6.951974 -9.140623 -0.681533
		CHANNELS 3 Zrotation Yrotation Xrotation
		JOINT LeftLeg
		{
			OFFSET 3.427654 -37.519855 -0.449580
			CHANNELS 3 Zrotation Yrotation Xrotation
			JOINT LeftFoot
			{
				OFFSET -1.359570 -39.796059 -4.369333
				CHANNELS 3 Zrotation Yrotation Xrotation
				JOINT LeftToe
				{
					OFFSET 2.635814 -5.579078 11.928840
					CHANNELS 3 Zrotation Yrotation Xrotation
					End Site
					{
						OFFSET 0.000000 0.000000 0.000000
					}
				}
			}
		}
	}
	JOINT RightUpLeg
	{
		OFFSET -6.767048 -9.052170 -0.431982
		CHANNELS 3 Zrotation Yrotation Xrotation
		JOINT RightLeg
		{
			OFFSET -3.829005 -38.256897 -0.885003
			CHANNELS 3 Zrotation Yrotation Xrotation
			JOINT RightFoot
			{
				OFFSET 1.577377 -39.841461 -4.231180
				CHANNELS 3 Zrotation Yrotation Xrotation
				JOINT RightToe
				{
					OFFSET -2.537174 -4.814398 12.334795
					CHANNELS 3 Zrotation Yrotation Xrotation
					End Site
					{
						OFFSET 0.000000 0.000000 0.000000
					}
				}
			}
		}
	}
	JOINT Spine
	{
		OFFSET -0.253288 10.896323 -2.669631
		CHANNELS 3 Zrotation Yrotation Xrotation
		JOINT Spine1
		{
			OFFSET 0.548704 13.518043 0.109247
			CHANNELS 3 Zrotation Yrotation Xrotation
			JOINT Spine2
			{
				OFFSET 0.145701 5.292222 2.542457
				CHANNELS 3 Zrotation Yrotation Xrotation
				JOINT Neck
				{
					OFFSET -0.277840 21.387037 -4.285703
					CHANNELS 3 Zrotation Yrotation Xrotation
					JOINT Head
					{
						OFFSET 0.515184 6.496960 5.134897
						CHANNELS 3 Zrotation Yrotation Xrotation
						End Site
						{
							OFFSET 0.000000 0.000000 0.000000
						}
					}
				}
				JOINT LeftShoulder
				{
					OFFSET 7.884473 12.174932 -3.408961
					CHANNELS 3 Zrotation Yrotation Xrotation
					JOINT LeftArm
					{
						OFFSET 9.097692 3.046888 -0.886815
						CHANNELS 3 Zrotation Yrotation Xrotation
						JOINT LeftForeArm
						{
							OFFSET 25.961220 -1.277207 -2.745643
							CHANNELS 3 Zrotation Yrotation Xrotation
							JOINT LeftHand
							{
								OFFSET 24.923361 0.898606 -0.117091
								CHANNELS 3 Zrotation Yrotation Xrotation
								End Site
								{
									OFFSET 0.000000 0.000000 0.000000
								}
							}
						}
					}
				}
				JOINT RightShoulder
				{
					OFFSET -8.175920 11.883285 -3.861528
					CHANNELS 3 Zrotation Yrotation Xrotation
					JOINT RightArm
					{
						OFFSET -9.601238 3.255117 -0.914307
						CHANNELS 3 Zrotation Yrotation Xrotation
						JOINT RightForeArm
						{
							OFFSET -25.374195 -1.332924 -2.140099
							CHANNELS 3 Zrotation Yrotation Xrotation
							JOINT RightHand
							{
								OFFSET -25.529810 0.777228 -0.555919
								CHANNELS 3 Zrotation Yrotation Xrotation
								End Site
								{
									OFFSET 0.000000 0.000000 0.000000
								}
							}
						}
					}
				}
			}
		}
	}
}
MOTION
Frames: 10
Frame Time: 0.033333
-48.330521 176.246429 93.765625 -118.695145 -1.174196 94.603401 21.389647 8.397648 0.313640 -3.457498 6.523480 -0.186029 -1.996863 5.100198 2.468803 nan nan nan -17.700197 -10.777911 -21.022981 -0.713118 -16.281137 35.560669 3.588014 -3.385780 -10.854304 nan nan nan -5.007889 -5.563577 6.244609 6.897710 -8.860277 3.735304 1.761281 -1.381078 -5.021447 2.661175 -11.260391 7.727576 3.282540 -12.010549 16.373952 -5.510143 -13.878077 -0.060430 -77.807557 -42.043622 35.258864 143.500754 -62.554497 -110.820898 1.056471 -20.383719 -18.732707 10.808811 7.285739 -6.895124 45.615969 32.127919 -0.571624 -142.787169 44.176245 -121.568606 9.276135 12.039130 -6.052307 
-48.635349 175.779266 93.675522 -119.305701 -1.040551 94.563644 21.473351 8.373728 0.401732 -3.447342 6.326697 -0.329223 -1.749038 5.204922 1.888481 nan nan nan -17.875706 -10.665486 -21.090877 -0.666557 -15.787815 35.323142 3.783964 -3.194253 -10.544648 nan nan nan -5.113119 -5.323532 5.998993 7.118459 -8.764625 4.317212 1.951137 -1.505785 -5.191296 2.930980 -11.481885 7.733041 3.357185 -12.390025 16.171146 -5.543580 -14.379555 0.085821 -77.817876 -42.362002 35.404397 142.833787 -62.596963 -110.254381 0.839783 -20.530870 -18.508240 10.904920 7.554563 -6.890507 45.278037 31.680785 -0.794741 -142.168431 43.920975 -120.296169 9.451613 11.837664 -5.607089 
-48.947811 175.282639 93.565895 -120.037139 -0.974956 94.675653 21.378375 8.425570 0.281584 -3.318486 6.470478 -0.271857 -1.566602 5.238750 0.998135 nan nan nan -18.108117 -10.580809 -21.429957 -0.579827 -15.285903 35.148224 3.954670 -2.956592 -10.344110 nan nan nan -5.065536 -5.347925 5.775445 7.146588 -8.791815 4.529516 1.880297 -1.315640 -5.264000 3.181170 -11.728032 7.695606 3.385926 -12.775822 16.168919 -5.405287 -14.420874 0.100566 -77.977670 -42.567407 35.851590 142.184602 -62.663314 -109.669442 0.881216 -20.861184 -18.663541 11.223178 7.648643 -6.822701 45.151098 31.305217 -0.554691 -141.601274 43.757389 -119.277228 9.343749 11.969852 -5.668332 
-49.259331 174.746613 93.482422 -120.730229 -0.903798 94.733877 21.260717 8.498438 0.077895 -3.171840 6.614363 -0.005487 -1.366341 5.489898 0.017808 nan nan nan -18.332317 -10.495449 -21.651049 -0.424314 -14.755690 34.850445 3.965224 -2.756101 -10.181645 nan nan nan -5.009634 -5.373367 5.767426 7.218743 -8.799194 4.495509 1.806387 -1.107610 -5.222377 3.403705 -12.124913 7.505367 3.248792 -13.089957 16.277754 -5.421691 -14.289256 0.117246 -78.265491 -42.810253 36.344950 141.906545 -62.932145 -109.312921 1.133613 -21.084239 -18.912325 11.536152 7.532123 -6.940851 45.029455 30.913064 -0.320439 -141.220233 43.828106 -118.670821 9.186969 12.081847 -5.719089 
-49.564156 174.218597 93.409691 -121.226554 -0.776316 94.714298 21.296483 8.589525 -0.226617 -3.110276 6.747674 0.428127 -1.278804 5.703717 -0.841845 nan nan nan -18.467359 -10.477526 -21.671195 -0.353652 -14.316351 34.511473 4.020421 -2.597849 -10.016260 nan nan nan -4.896862 -5.417317 5.992057 7.330669 -8.790178 4.055249 1.836891 -1.142546 -4.949085 3.506743 -12.377026 7.359967 3.192810 -13.167505 16.356685 -5.644811 -14.155632 0.197348 -78.480680 -42.970518 36.578911 142.063495 -63.295790 -109.181223 1.461864 -21.064369 -19.307325 11.697232 7.458528 -6.922606 44.919622 30.657255 -0.369953 -140.874219 43.976078 -118.393693 9.140562 12.151577 -6.031107 
-49.873310 173.689041 93.305016 -121.632851 -0.686847 94.602921 21.323815 8.681772 -0.524577 -3.027876 7.100125 0.929579 -1.212957 5.722965 -1.293642 nan nan nan -18.700421 -10.486846 -21.563323 -0.394933 -14.064375 34.223171 4.120701 -2.372682 -9.776546 nan nan nan -4.774380 -5.485154 6.045053 7.420128 -8.945852 4.216311 1.882743 -1.388546 -5.036002 3.442507 -12.332404 7.442388 3.248494 -13.239524 16.246533 -5.960454 -14.080028 0.301115 -78.138127 -43.070832 36.304685 142.221213 -63.270286 -109.439314 0.890905 -20.905932 -19.280430 11.786460 7.703891 -6.509981 44.791663 30.858312 -0.593170 -140.220742 44.168713 -117.658928 9.400908 11.814912 -5.455804 
-50.187943 173.155838 93.188118 -122.193827 -0.559277 94.599676 21.374034 8.818218 -0.813702 -2.944584 7.528961 1.368046 -1.138056 5.699105 -1.518716 nan nan nan -18.884337 -10.380900 -21.627991 -0.411343 -13.815354 33.912848 4.129463 -2.145629 -9.586982 nan nan nan -4.704689 -5.425558 5.977086 7.474815 -8.944567 4.506548 1.920529 -1.429344 -5.266977 3.677338 -12.528294 7.409015 3.212461 -13.432864 16.423560 -6.186778 -14.466251 0.367639 -77.917467 -43.027159 36.300534 141.929568 -63.216054 -108.948080 0.597451 -20.874525 -19.308857 12.118452 7.914367 -6.537757 44.537419 30.360645 -0.567340 -139.782935 44.159893 -117.065386 9.470941 11.860198 -5.059510 
-50.541126 172.612656 93.047882 -122.941222 -0.392539 94.555739 21.469799 8.859006 -0.812177 -2.847943 7.647383 1.591043 -0.966151 5.763350 -1.428985 nan nan nan -19.041197 -10.171249 -21.757776 -0.399113 -13.487275 33.579538 4.141533 -1.974152 -9.355286 nan nan nan -4.481590 -5.413136 5.820423 7.484209 -8.903412 4.798242 1.891088 -1.464686 -5.382095 3.648101 -12.458771 7.596826 3.236944 -13.667992 16.302875 -6.386290 -14.610859 0.263929 -77.721774 -42.797874 36.174358 141.973990 -63.152026 -108.789130 0.155278 -20.785084 -18.806660 12.248516 8.213759 -6.545417 44.575707 30.136569 -0.487160 -139.245450 44.138804 -116.624207 10.121390 11.776911 -5.189221 
-50.914715 172.047943 92.901222 -123.657892 -0.211815 94.483534 21.614590 8.844825 -0.801835 -2.814706 7.467069 1.842271 -0.782077 5.956684 -1.284688 nan nan nan -19.214613 -10.022502 -21.877008 -0.372946 -13.159438 33.284730 4.216740 -1.763134 -9.019698 nan nan nan -4.379799 -5.203991 5.643321 7.630022 -8.775107 5.285833 1.995447 -1.630190 -5.654676 3.516286 -12.512392 7.859671 3.393389 -13.987179 15.894249 -6.633436 -14.799390 0.387748 -77.555882 -42.821854 36.056867 141.940343 -63.289476 -108.720747 0.181025 -20.822444 -18.554497 12.306810 8.430918 -6.385804 44.279680 29.949249 -0.782472 -138.821334 44.231543 -116.043816 9.878669 11.753062 -4.808522 
-51.283138 171.458542 92.751289 -124.218991 -0.076273 94.350258 21.694688 8.920136 -0.930995 -2.845065 7.295229 2.326766 -0.613204 6.004948 -1.074498 nan nan nan -19.472876 -10.048396 -21.900928 -0.333835 -12.888809 33.052279 4.370683 -1.546814 -8.668707 nan nan nan -4.383124 -5.026159 5.598107 7.770293 -8.740958 5.794525 2.102015 -1.706883 -5.949808 3.652598 -12.673267 7.824666 3.368995 -14.214265 15.793789 -6.854211 -15.132400 0.654743 -77.291434 -43.004744 35.889029 141.871657 -63.384405 -108.417499 0.244895 -20.758041 -18.314461 12.480373 8.624934 -6.135220 43.745891 29.741931 -1.204216 -138.408348 44.264803 -115.208662 9.345166 11.611717 -4.076851 
